<svg width="30" height="30" viewBox="0 0 30 30" fill="none" xmlns="http://www.w3.org/2000/svg">
<path fill-rule="evenodd" clip-rule="evenodd" d="M20.0858 18.8679H21.4408L30 27.4443L27.4443 30L18.8679 21.4408V20.0858L18.4048 19.6055C16.4494 21.2864 13.9108 22.2985 11.1492 22.2985C4.99142 22.2985 0 17.307 0 11.1492C0 4.99142 4.99142 0 11.1492 0C17.307 0 22.2985 4.99142 22.2985 11.1492C22.2985 13.9108 21.2864 16.4494 19.6055 18.4048L20.0858 18.8679ZM3.43053 11.1492C3.43053 15.4202 6.87822 18.8679 11.1492 18.8679C15.4202 18.8679 18.8679 15.4202 18.8679 11.1492C18.8679 6.87822 15.4202 3.43053 11.1492 3.43053C6.87822 3.43053 3.43053 6.87822 3.43053 11.1492Z" fill="#4A90E2"/>
</svg>
